<svg version="1.2" preserveAspectRatio="xMidYMid meet" viewBox="15.6 74.99999820000001 345.75 140.999996616" zoomAndPan="magnify" xmlns:xlink="http://www.w3.org/1999/xlink" xmlns="http://www.w3.org/2000/svg" style="max-height: 500px" width="345.75" height="140.999996616"><defs><clipPath id="e5eb807dc4"><path d="M 226.195312 232.105469 L 279.445312 232.105469 L 279.445312 322.105469 L 226.195312 322.105469 Z M 226.195312 232.105469"/></clipPath></defs><g id="04492b86dc"><rect style="fill:#ffffff;fill-opacity:1;stroke:none;" height="374.999991" y="0" width="375" x="0"/><rect style="fill:#ffffff;fill-opacity:1;stroke:none;" height="374.999991" y="0" width="375" x="0"/><g style="fill:#2562ea;fill-opacity:1;"><g transform="translate(43.521734, 178.536771)"><path d="M 9.625 0 L 13.109375 -20.0625 L 64.71875 -20.0625 L 70.34375 -24.734375 L 72.203125 -35.703125 L 68.328125 -40.390625 L 27.6875 -40.390625 L 15.515625 -55.359375 L 20.453125 -83.703125 L 37.96875 -98.546875 L 102.96875 -98.546875 L 99.484375 -78.5 L 49.203125 -78.5 L 43.59375 -73.8125 L 42.125 -65.125 L 46 -60.4375 L 86.65625 -60.4375 L 98.8125 -45.59375 L 93.46875 -14.84375 L 75.953125 0 Z M 9.625 0" style="stroke:none"/></g></g><g style="fill:#2562ea;fill-opacity:1;"><g transform="translate(132.305141, 178.536771)"><path d="M 9.09375 0 L 26.46875 -98.546875 L 51.75 -98.546875 L 44.796875 -59.375 L 82.234375 -98.546875 L 112.59375 -98.546875 L 68.734375 -55.625 L 95.203125 0 L 70.734375 0 L 52.6875 -39.984375 L 39.046875 -26.609375 L 34.359375 0 Z M 9.09375 0" style="stroke:none"/></g></g><g style="fill:#2562ea;fill-opacity:1;"><g transform="translate(217.077222, 178.536771)"><path d="M 9.625 0 L 13.109375 -20.0625 L 64.71875 -20.0625 L 70.34375 -24.734375 L 72.203125 -35.703125 L 68.328125 -40.390625 L 27.6875 -40.390625 L 15.515625 -55.359375 L 20.453125 -83.703125 L 37.96875 -98.546875 L 102.96875 -98.546875 L 99.484375 -78.5 L 49.203125 -78.5 L 43.59375 -73.8125 L 42.125 -65.125 L 46 -60.4375 L 86.65625 -60.4375 L 98.8125 -45.59375 L 93.46875 -14.84375 L 75.953125 0 Z M 9.625 0" style="stroke:none"/></g></g><g style="fill:#000000;fill-opacity:1;"><g transform="translate(21.424033, 209.149314)"><path d="M -0.21875 0 L 10.703125 -22.984375 L 20.203125 -22.984375 L 22.828125 0 L 16.90625 0 L 16.5625 -4.578125 L 8.359375 -4.578125 L 6.421875 0 Z M 10.203125 -9.078125 L 16.1875 -9.078125 L 15.4375 -18.59375 L 14.3125 -18.59375 Z M 10.203125 -9.078125" style="stroke:none"/></g></g><g style="fill:#000000;fill-opacity:1;"><g transform="translate(46.16543, 209.149314)"><path d="M 5.359375 0 L 2.59375 -3.46875 L 6.015625 -22.984375 L 11.90625 -22.984375 L 8.828125 -5.515625 L 9.734375 -4.421875 L 16.0625 -4.421875 L 17.34375 -5.515625 L 20.421875 -22.984375 L 26.328125 -22.984375 L 22.890625 -3.46875 L 18.8125 0 Z M 5.359375 0" style="stroke:none"/></g></g><g style="fill:#000000;fill-opacity:1;"><g transform="translate(72.184256, 209.149314)"><path d="M 6.546875 0 L 9.765625 -18.25 L 3.34375 -18.25 L 4.171875 -22.984375 L 22.921875 -22.984375 L 22.078125 -18.25 L 15.65625 -18.25 L 12.4375 0 Z M 6.546875 0" style="stroke:none"/></g></g><g style="fill:#000000;fill-opacity:1;"><g transform="translate(92.968649, 209.149314)"><path d="M 4.953125 0 L 2.125 -3.46875 L 4.921875 -19.515625 L 9.015625 -22.984375 L 22.609375 -22.984375 L 25.453125 -19.515625 L 22.640625 -3.46875 L 18.5625 0 Z M 9.296875 -4.421875 L 15.84375 -4.421875 L 17.125 -5.515625 L 19.25 -17.46875 L 18.28125 -18.5625 L 11.78125 -18.5625 L 10.484375 -17.46875 L 8.359375 -5.515625 Z M 9.296875 -4.421875" style="stroke:none"/></g></g><g style="fill:#000000;fill-opacity:1;"><g transform="translate(118.270857, 209.149314)"><path d="" style="stroke:none"/></g></g><g style="fill:#000000;fill-opacity:1;"><g transform="translate(127.745077, 209.149314)"><path d="M 1.1875 0 L 1.96875 -4.390625 L 4.484375 -4.390625 L 6.953125 -18.59375 L 4.453125 -18.59375 L 5.234375 -22.984375 L 15.96875 -22.984375 L 15.1875 -18.59375 L 12.65625 -18.59375 L 10.109375 -4.390625 L 12.6875 -4.390625 L 11.90625 0 Z M 1.1875 0" style="stroke:none"/></g></g><g style="fill:#000000;fill-opacity:1;"><g transform="translate(142.640718, 209.149314)"><path d="M 2.125 0 L 6.171875 -22.984375 L 12.21875 -22.984375 L 17.78125 -8.578125 L 20.328125 -22.984375 L 25.828125 -22.984375 L 21.765625 0 L 16.28125 0 L 11.109375 -13.46875 L 9.984375 -13.46875 L 7.609375 0 Z M 2.125 0" style="stroke:none"/></g></g><g style="fill:#000000;fill-opacity:1;"><g transform="translate(168.316809, 209.149314)"><path d="M 2.125 0 L 6.171875 -22.984375 L 21.296875 -22.984375 L 25.234375 -18.21875 L 22.859375 -4.765625 L 17.25 0 Z M 8.796875 -4.421875 L 15.4375 -4.421875 L 17.40625 -6.078125 L 19.3125 -16.90625 L 17.9375 -18.5625 L 11.296875 -18.5625 Z M 8.796875 -4.421875" style="stroke:none"/></g></g><g style="fill:#000000;fill-opacity:1;"><g transform="translate(193.307463, 209.149314)"><path d="M 5.359375 0 L 2.59375 -3.46875 L 6.015625 -22.984375 L 11.90625 -22.984375 L 8.828125 -5.515625 L 9.734375 -4.421875 L 16.0625 -4.421875 L 17.34375 -5.515625 L 20.421875 -22.984375 L 26.328125 -22.984375 L 22.890625 -3.46875 L 18.8125 0 Z M 5.359375 0" style="stroke:none"/></g></g><g style="fill:#000000;fill-opacity:1;"><g transform="translate(219.326288, 209.149314)"><path d="M 2.25 0 L 3.0625 -4.671875 L 15.09375 -4.671875 L 16.40625 -5.765625 L 16.84375 -8.328125 L 15.9375 -9.421875 L 6.453125 -9.421875 L 3.625 -12.90625 L 4.765625 -19.515625 L 8.859375 -22.984375 L 24.015625 -22.984375 L 23.203125 -18.3125 L 11.484375 -18.3125 L 10.171875 -17.21875 L 9.828125 -15.1875 L 10.734375 -14.09375 L 20.203125 -14.09375 L 23.046875 -10.640625 L 21.796875 -3.46875 L 17.71875 0 Z M 2.25 0" style="stroke:none"/></g></g><g style="fill:#000000;fill-opacity:1;"><g transform="translate(243.631473, 209.149314)"><path d="M 6.546875 0 L 9.765625 -18.25 L 3.34375 -18.25 L 4.171875 -22.984375 L 22.921875 -22.984375 L 22.078125 -18.25 L 15.65625 -18.25 L 12.4375 0 Z M 6.546875 0" style="stroke:none"/></g></g><g style="fill:#000000;fill-opacity:1;"><g transform="translate(264.415866, 209.149314)"><path d="M 2.125 0 L 6.171875 -22.984375 L 21.953125 -22.984375 L 24.859375 -19.515625 L 23.390625 -11.296875 L 20.140625 -8.546875 L 22.109375 0 L 16.53125 0 L 14.875 -7.828125 L 9.390625 -7.828125 L 8.015625 0 Z M 10.171875 -12.25 L 16.71875 -12.25 L 18.03125 -13.34375 L 18.75 -17.46875 L 17.84375 -18.5625 L 11.296875 -18.5625 Z M 10.171875 -12.25" style="stroke:none"/></g></g><g style="fill:#000000;fill-opacity:1;"><g transform="translate(289.34419, 209.149314)"><path d="M 1.1875 0 L 1.96875 -4.390625 L 4.484375 -4.390625 L 6.953125 -18.59375 L 4.453125 -18.59375 L 5.234375 -22.984375 L 15.96875 -22.984375 L 15.1875 -18.59375 L 12.65625 -18.59375 L 10.109375 -4.390625 L 12.6875 -4.390625 L 11.90625 0 Z M 1.1875 0" style="stroke:none"/></g></g><g style="fill:#000000;fill-opacity:1;"><g transform="translate(304.23983, 209.149314)"><path d="M 2.125 0 L 6.171875 -22.984375 L 23.765625 -22.984375 L 22.921875 -18.25 L 11.234375 -18.25 L 10.484375 -14 L 21.015625 -14 L 20.265625 -9.609375 L 9.703125 -9.609375 L 8.859375 -4.734375 L 20.546875 -4.734375 L 19.703125 0 Z M 2.125 0" style="stroke:none"/></g></g><g style="fill:#000000;fill-opacity:1;"><g transform="translate(327.236407, 209.149314)"><path d="M 2.25 0 L 3.0625 -4.671875 L 15.09375 -4.671875 L 16.40625 -5.765625 L 16.84375 -8.328125 L 15.9375 -9.421875 L 6.453125 -9.421875 L 3.625 -12.90625 L 4.765625 -19.515625 L 8.859375 -22.984375 L 24.015625 -22.984375 L 23.203125 -18.3125 L 11.484375 -18.3125 L 10.171875 -17.21875 L 9.828125 -15.1875 L 10.734375 -14.09375 L 20.203125 -14.09375 L 23.046875 -10.640625 L 21.796875 -3.46875 L 17.71875 0 Z M 2.25 0" style="stroke:none"/></g></g><g clip-path="url(#e5eb807dc4)" clip-rule="nonzero"><path d="M 226.257812 278.117188 L 226.3125 278.46875 L 226.3125 279.519531 L 226.378906 279.871094 L 226.378906 280.222656 L 226.433594 280.574219 L 226.433594 280.925781 L 226.5 281.277344 L 226.554688 281.691406 L 226.554688 282.042969 L 226.609375 282.394531 L 226.675781 282.746094 L 226.730469 283.152344 L 231.65625 282.449219 L 231.710938 282.867188 L 231.820312 283.570312 L 231.886719 283.917969 L 231.941406 284.214844 L 231.996094 284.566406 L 232.058594 284.90625 L 232.117188 285.203125 L 232.171875 285.554688 L 232.289062 285.851562 L 232.34375 286.203125 L 232.402344 286.496094 L 232.464844 286.847656 L 232.519531 287.144531 L 232.640625 287.429688 L 232.695312 287.78125 L 232.816406 288.078125 L 232.871094 288.375 L 232.992188 288.722656 L 233.046875 289.019531 L 233.167969 289.304688 L 233.222656 289.667969 L 233.464844 290.238281 L 233.574219 290.601562 L 233.695312 290.886719 L 233.816406 291.246094 L 233.9375 291.53125 L 234.046875 291.882812 L 234.222656 292.234375 L 234.34375 292.585938 L 234.519531 292.882812 L 229.886719 294.878906 L 230.238281 295.582031 L 230.347656 295.929688 L 230.535156 296.28125 L 231.414062 298.039062 L 231.589844 298.386719 L 231.765625 298.683594 L 231.996094 299.035156 L 232.171875 299.386719 L 232.34375 299.738281 L 232.519531 300.035156 L 232.761719 300.382812 L 232.9375 300.734375 L 233.167969 301.019531 L 233.34375 301.371094 L 233.574219 301.722656 L 233.816406 302.019531 L 233.992188 302.371094 L 234.222656 302.722656 L 234.460938 303.015625 L 234.691406 303.367188 L 234.921875 303.664062 L 235.152344 304.015625 L 235.394531 304.3125 L 235.691406 304.664062 L 235.921875 305.011719 L 236.21875 305.300781 L 236.449219 305.648438 L 240.253906 302.546875 L 240.429688 302.785156 L 240.605469 303.015625 L 240.78125 303.191406 L 241.011719 303.433594 L 241.199219 303.664062 L 241.363281 303.894531 L 241.605469 304.136719 L 241.777344 304.3125 L 242.007812 304.542969 L 242.183594 304.773438 L 242.425781 305.011719 L 242.601562 305.242188 L 242.832031 305.417969 L 243.304688 305.890625 L 243.480469 306.121094 L 243.710938 306.363281 L 243.941406 306.527344 L 244.179688 306.769531 L 244.464844 307 L 244.9375 307.472656 L 245.234375 307.699219 L 245.464844 307.875 L 245.761719 308.117188 L 245.992188 308.347656 L 246.289062 308.578125 L 246.574219 308.820312 L 246.867188 309.050781 L 247.164062 309.226562 L 247.460938 309.46875 L 247.757812 309.699219 L 244.882812 313.625 L 245.179688 313.800781 L 245.410156 313.976562 L 245.707031 314.207031 L 245.992188 314.382812 L 246.222656 314.558594 L 246.519531 314.742188 L 246.8125 314.90625 L 247.109375 315.148438 L 247.394531 315.324219 L 247.988281 315.675781 L 248.273438 315.851562 L 248.570312 316.027344 L 248.855469 316.203125 L 249.214844 316.378906 L 249.5 316.554688 L 249.863281 316.730469 L 250.148438 316.902344 L 250.5 317.078125 L 250.796875 317.253906 L 251.148438 317.429688 L 251.496094 317.605469 L 251.847656 317.78125 L 252.199219 317.902344 L 253.605469 318.605469 L 254.019531 318.726562 L 254.371094 318.890625 L 254.777344 319.066406 L 255.183594 319.25 L 256.9375 314.742188 L 257.234375 314.851562 L 257.828125 315.09375 L 258.113281 315.203125 L 258.410156 315.324219 L 258.703125 315.378906 L 258.988281 315.5 L 259.285156 315.609375 L 259.582031 315.730469 L 259.933594 315.796875 L 260.21875 315.90625 L 260.515625 315.972656 L 260.867188 316.082031 L 261.160156 316.136719 L 261.457031 316.257812 L 261.796875 316.324219 L 262.09375 316.378906 L 262.457031 316.433594 L 262.742188 316.554688 L 263.09375 316.609375 L 263.441406 316.664062 L 263.792969 316.730469 L 264.144531 316.785156 L 264.496094 316.902344 L 264.847656 316.960938 L 265.199219 317.023438 L 265.902344 317.132812 L 266.25 317.199219 L 266.667969 317.253906 L 267.019531 317.308594 L 267.425781 317.308594 L 266.898438 321.9375 L 267.25 322.003906 L 267.601562 322.003906 L 267.953125 322.058594 L 268.597656 322.058594 L 268.949219 322.113281 L 275.445312 322.113281 L 275.792969 322.058594 L 276.441406 322.058594 L 276.792969 322.003906 L 277.144531 322.003906 L 277.496094 321.9375 L 276.96875 317.308594 L 277.375 317.308594 L 277.726562 317.253906 L 278.140625 317.199219 L 278.492188 317.132812 L 279.195312 317.023438 L 279.546875 316.960938 L 279.898438 316.902344 L 280.25 316.785156 L 280.597656 316.730469 L 280.949219 316.664062 L 281.652344 316.554688 L 281.9375 316.433594 L 282.300781 316.378906 L 282.59375 316.324219 L 282.9375 316.257812 L 283.230469 316.136719 L 283.527344 316.082031 L 283.878906 315.972656 L 284.175781 315.90625 L 284.460938 315.796875 L 284.8125 315.730469 L 285.109375 315.609375 L 285.402344 315.5 L 285.6875 315.378906 L 285.984375 315.324219 L 286.28125 315.203125 L 286.566406 315.09375 L 287.160156 314.851562 L 287.453125 314.742188 L 289.210938 319.25 L 289.617188 319.066406 L 290.023438 318.890625 L 290.371094 318.726562 L 290.789062 318.605469 L 292.195312 317.902344 L 292.542969 317.78125 L 293.597656 317.253906 L 293.894531 317.078125 L 294.246094 316.902344 L 294.53125 316.730469 L 294.890625 316.554688 L 295.175781 316.378906 L 295.539062 316.203125 L 295.824219 316.027344 L 296.121094 315.851562 L 296.40625 315.675781 L 296.703125 315.5 L 296.996094 315.324219 L 297.285156 315.148438 L 297.578125 314.90625 L 297.875 314.742188 L 298.171875 314.558594 L 298.402344 314.382812 L 298.6875 314.207031 L 298.984375 313.976562 L 299.214844 313.800781 L 299.511719 313.625 L 296.636719 309.699219 L 296.933594 309.46875 L 297.226562 309.226562 L 297.523438 309.050781 L 297.820312 308.820312 L 298.105469 308.578125 L 298.402344 308.347656 L 298.632812 308.117188 L 298.929688 307.875 L 299.160156 307.699219 L 299.457031 307.472656 L 299.683594 307.242188 L 299.925781 307 L 300.210938 306.769531 L 300.453125 306.527344 L 300.683594 306.363281 L 300.914062 306.121094 L 301.089844 305.890625 L 301.5625 305.417969 L 301.792969 305.242188 L 301.96875 305.011719 L 302.207031 304.773438 L 302.382812 304.542969 L 303.03125 303.894531 L 303.195312 303.664062 L 303.382812 303.433594 L 303.613281 303.191406 L 303.789062 303.015625 L 303.964844 302.785156 L 304.140625 302.546875 L 307.945312 305.648438 L 308.175781 305.300781 L 308.472656 305.011719 L 308.703125 304.664062 L 309 304.3125 L 309.238281 304.015625 L 309.46875 303.664062 L 309.699219 303.367188 L 309.929688 303.015625 L 310.171875 302.722656 L 310.402344 302.371094 L 310.578125 302.019531 L 310.820312 301.722656 L 311.050781 301.371094 L 311.226562 301.019531 L 311.457031 300.734375 L 311.632812 300.382812 L 311.871094 300.035156 L 312.046875 299.738281 L 312.398438 299.035156 L 312.628906 298.683594 L 312.804688 298.386719 L 312.980469 298.039062 L 313.859375 296.28125 L 314.042969 295.929688 L 314.152344 295.582031 L 314.503906 294.878906 L 309.875 292.882812 L 310.050781 292.585938 L 310.171875 292.234375 L 310.347656 291.882812 L 310.457031 291.53125 L 310.578125 291.246094 L 310.699219 290.886719 L 310.820312 290.601562 L 310.929688 290.238281 L 311.171875 289.667969 L 311.226562 289.304688 L 311.347656 289.019531 L 311.402344 288.722656 L 311.519531 288.375 L 311.574219 288.078125 L 311.695312 287.78125 L 311.75 287.429688 L 311.871094 287.144531 L 311.925781 286.847656 L 311.992188 286.496094 L 312.046875 286.203125 L 312.101562 285.851562 L 312.222656 285.554688 L 312.277344 285.203125 L 312.332031 284.90625 L 312.398438 284.566406 L 312.453125 284.214844 L 312.507812 283.917969 L 312.574219 283.570312 L 312.683594 282.867188 L 312.738281 282.449219 L 317.664062 283.152344 L 317.71875 282.746094 L 317.785156 282.394531 L 317.839844 282.042969 L 317.839844 281.691406 L 317.894531 281.277344 L 317.960938 280.925781 L 317.960938 280.574219 L 318.015625 280.222656 L 318.015625 279.871094 L 318.082031 279.519531 L 318.082031 278.46875 L 318.136719 278.117188 L 318.136719 275.363281 L 318.082031 275.066406 L 318.082031 274.367188 L 318.015625 274.015625 L 318.015625 273.664062 L 317.960938 273.3125 L 317.960938 272.960938 L 317.894531 272.609375 L 317.839844 272.257812 L 317.839844 271.910156 L 312.738281 272.433594 L 312.683594 272.085938 L 312.628906 271.667969 L 312.574219 271.316406 L 312.574219 270.964844 L 312.507812 270.558594 L 312.398438 270.207031 L 312.332031 269.800781 L 312.277344 269.453125 L 312.222656 269.035156 L 312.167969 268.683594 L 312.046875 268.332031 L 311.992188 267.925781 L 311.871094 267.574219 L 311.804688 267.226562 L 311.695312 266.875 L 311.574219 266.457031 L 311.519531 266.105469 L 311.402344 265.753906 L 311.28125 265.402344 L 311.171875 265.054688 L 310.929688 264.351562 L 310.820312 263.988281 L 310.699219 263.648438 L 310.578125 263.296875 L 310.402344 262.945312 L 310.28125 262.597656 L 310.171875 262.300781 L 309.996094 261.949219 L 309.875 261.597656 L 309.699219 261.300781 L 309.589844 260.949219 L 314.273438 258.953125 L 314.152344 258.601562 L 313.976562 258.253906 L 313.804688 257.964844 L 313.683594 257.617188 L 313.507812 257.320312 L 313.332031 256.96875 L 313.222656 256.671875 L 313.046875 256.386719 L 312.859375 256.035156 L 312.683594 255.738281 L 312.574219 255.445312 L 312.398438 255.160156 L 312.222656 254.851562 L 312.046875 254.566406 L 311.871094 254.214844 L 311.695312 253.917969 L 311.519531 253.6875 L 311.347656 253.394531 L 311.171875 253.109375 L 310.984375 252.8125 L 310.820312 252.515625 L 310.644531 252.21875 L 310.457031 251.988281 L 310.28125 251.691406 L 310.050781 251.460938 L 309.875 251.164062 L 309.699219 250.933594 L 309.523438 250.640625 L 309.292969 250.398438 L 309.117188 250.113281 L 308.945312 249.871094 L 308.703125 249.640625 L 304.609375 252.746094 L 304.433594 252.449219 L 304.195312 252.21875 L 303.964844 251.933594 L 303.789062 251.636719 L 303.558594 251.339844 L 303.316406 251.101562 L 303.03125 250.816406 L 302.789062 250.519531 L 302.558594 250.234375 L 302.03125 249.707031 L 301.792969 249.410156 L 301.507812 249.125 L 301.210938 248.882812 L 300.980469 248.589844 L 300.683594 248.292969 L 300.386719 248.0625 L 299.859375 247.535156 L 299.566406 247.304688 L 299.28125 247.007812 L 298.984375 246.765625 L 298.6875 246.535156 L 298.457031 246.304688 L 298.171875 246.078125 L 297.875 245.835938 L 297.578125 245.660156 L 297.347656 245.429688 L 297.054688 245.242188 L 296.8125 245.011719 L 296.527344 244.835938 L 296.296875 244.660156 L 299.335938 240.558594 L 299.050781 240.328125 L 298.753906 240.152344 L 298.511719 239.910156 L 298.226562 239.746094 L 297.929688 239.558594 L 297.644531 239.332031 L 297.347656 239.15625 L 297.054688 238.980469 L 296.703125 238.75 L 296.40625 238.574219 L 296.121094 238.398438 L 295.769531 238.222656 L 295.175781 237.871094 L 294.824219 237.695312 L 294.53125 237.519531 L 294.179688 237.332031 L 293.894531 237.167969 L 293.542969 236.984375 L 293.246094 236.808594 L 292.894531 236.644531 L 292.597656 236.523438 L 292.25 236.347656 L 291.964844 236.226562 L 291.613281 236.050781 L 291.316406 235.929688 L 291.019531 235.753906 L 290.667969 235.644531 L 290.371094 235.523438 L 290.085938 235.414062 L 289.792969 235.28125 L 289.496094 235.171875 L 287.574219 239.910156 L 287.214844 239.746094 L 286.511719 239.503906 L 286.160156 239.386719 L 285.808594 239.273438 L 285.402344 239.15625 L 285.050781 239.035156 L 284.703125 238.925781 L 284 238.683594 L 283.648438 238.574219 L 283.230469 238.507812 L 282.878906 238.398438 L 282.53125 238.277344 L 282.179688 238.222656 L 281.828125 238.101562 L 281.125 237.992188 L 280.773438 237.871094 L 280.421875 237.804688 L 280.074219 237.75 L 279.722656 237.695312 L 279.371094 237.628906 L 279.019531 237.585938 L 278.667969 237.519531 L 278.304688 237.519531 L 278.019531 237.453125 L 277.671875 237.398438 L 277.320312 237.398438 L 276.96875 237.332031 L 276.320312 237.332031 L 276.792969 232.300781 L 276.441406 232.242188 L 276.144531 232.242188 L 275.792969 232.179688 L 275.445312 232.179688 L 275.09375 232.125 L 272.285156 232.125 L 272.195312 232.132812 L 272.109375 232.125 L 269.300781 232.125 L 268.949219 232.179688 L 268.597656 232.179688 L 268.246094 232.242188 L 267.953125 232.242188 L 267.601562 232.300781 L 268.074219 237.332031 L 267.425781 237.332031 L 267.074219 237.398438 L 266.722656 237.398438 L 266.371094 237.453125 L 266.085938 237.519531 L 265.726562 237.519531 L 265.375 237.585938 L 265.023438 237.628906 L 264.671875 237.695312 L 263.96875 237.804688 L 263.617188 237.871094 L 263.269531 237.992188 L 262.566406 238.101562 L 262.214844 238.222656 L 261.863281 238.277344 L 261.511719 238.398438 L 261.160156 238.507812 L 260.746094 238.574219 L 260.394531 238.683594 L 259.691406 238.925781 L 259.339844 239.035156 L 258.988281 239.15625 L 258.582031 239.273438 L 258.234375 239.386719 L 257.882812 239.503906 L 257.179688 239.746094 L 256.816406 239.910156 L 254.898438 235.171875 L 254.601562 235.28125 L 254.304688 235.414062 L 254.019531 235.523438 L 253.722656 235.644531 L 253.375 235.753906 L 253.078125 235.929688 L 252.78125 236.050781 L 252.429688 236.226562 L 252.144531 236.347656 L 251.792969 236.523438 L 251.496094 236.644531 L 251.148438 236.808594 L 250.851562 236.984375 L 250.5 237.167969 L 250.214844 237.332031 L 249.863281 237.519531 L 249.566406 237.695312 L 249.214844 237.871094 L 248.921875 238.046875 L 248.625 238.222656 L 248.273438 238.398438 L 247.988281 238.574219 L 247.691406 238.75 L 247.339844 238.980469 L 247.042969 239.15625 L 246.75 239.332031 L 246.464844 239.558594 L 246.167969 239.746094 L 245.882812 239.910156 L 245.640625 240.152344 L 245.34375 240.328125 L 245.058594 240.558594 L 248.097656 244.660156 L 247.867188 244.835938 L 247.582031 245.011719 L 247.339844 245.242188 L 247.042969 245.429688 L 246.8125 245.660156 L 246.519531 245.835938 L 246.222656 246.078125 L 245.9375 246.304688 L 245.707031 246.535156 L 245.410156 246.765625 L 245.113281 247.007812 L 244.828125 247.304688 L 244.53125 247.535156 L 244.300781 247.765625 L 244.007812 248.0625 L 243.710938 248.292969 L 243.414062 248.589844 L 243.183594 248.882812 L 242.886719 249.125 L 242.601562 249.410156 L 242.359375 249.707031 L 242.0625 250.003906 L 241.835938 250.234375 L 241.605469 250.519531 L 241.363281 250.816406 L 241.078125 251.101562 L 240.835938 251.339844 L 240.605469 251.636719 L 240.429688 251.933594 L 240.199219 252.21875 L 239.957031 252.449219 L 239.78125 252.746094 L 235.691406 249.640625 L 235.449219 249.871094 L 235.273438 250.113281 L 235.097656 250.398438 L 234.867188 250.640625 L 234.691406 250.933594 L 234.515625 251.164062 L 234.34375 251.460938 L 234.113281 251.691406 L 233.9375 251.988281 L 233.75 252.21875 L 233.574219 252.515625 L 233.410156 252.8125 L 233.222656 253.109375 L 233.046875 253.394531 L 232.871094 253.6875 L 232.695312 253.917969 L 232.519531 254.214844 L 232.34375 254.566406 L 232.171875 254.851562 L 231.996094 255.160156 L 231.820312 255.445312 L 231.710938 255.738281 L 231.535156 256.035156 L 231.347656 256.386719 L 231.171875 256.671875 L 231.0625 256.96875 L 230.886719 257.320312 L 230.710938 257.617188 L 230.589844 257.964844 L 230.414062 258.253906 L 230.238281 258.601562 L 230.117188 258.953125 L 234.804688 260.949219 L 234.691406 261.300781 L 234.515625 261.597656 L 234.398438 261.949219 L 234.222656 262.300781 L 234.113281 262.597656 L 233.992188 262.945312 L 233.816406 263.296875 L 233.695312 263.648438 L 233.574219 263.988281 L 233.464844 264.351562 L 233.222656 265.054688 L 233.113281 265.402344 L 232.871094 266.105469 L 232.816406 266.457031 L 232.695312 266.875 L 232.585938 267.226562 L 232.519531 267.574219 L 232.402344 267.925781 L 232.34375 268.332031 L 232.226562 268.683594 L 232.171875 269.035156 L 232.117188 269.453125 L 232.058594 269.800781 L 231.996094 270.207031 L 231.886719 270.558594 L 231.820312 270.964844 L 231.820312 271.316406 L 231.765625 271.667969 L 231.710938 272.085938 L 231.65625 272.433594 L 226.554688 271.910156 L 226.554688 272.257812 L 226.5 272.609375 L 226.433594 272.960938 L 226.433594 273.3125 L 226.378906 273.664062 L 226.378906 274.015625 L 226.3125 274.367188 L 226.3125 275.066406 L 226.257812 275.363281 Z M 238.324219 277.175781 L 238.378906 275.296875 L 238.5 273.5 L 238.796875 271.667969 L 239.148438 269.855469 L 239.617188 268.035156 L 240.199219 266.28125 L 240.835938 264.527344 L 241.605469 262.769531 L 242.480469 261.125 L 243.480469 259.425781 L 244.53125 257.847656 L 245.761719 256.320312 L 246.988281 254.796875 L 248.394531 253.335938 L 249.917969 251.988281 L 251.496094 250.640625 L 251.496094 250.761719 C 253.070312 249.542969 254.746094 248.460938 256.523438 247.535156 L 256.476562 247.535156 L 256.894531 247.347656 C 261.265625 245.140625 266.1875 243.871094 271.394531 243.785156 L 271.394531 243.792969 C 271.660156 243.785156 271.929688 243.777344 272.195312 243.773438 C 272.464844 243.777344 272.730469 243.785156 272.996094 243.792969 L 272.996094 243.785156 C 278.207031 243.871094 283.128906 245.140625 287.5 247.347656 L 287.914062 247.535156 L 287.871094 247.535156 C 289.648438 248.460938 291.324219 249.542969 292.894531 250.761719 L 292.894531 250.640625 L 294.476562 251.988281 L 296 253.335938 L 297.402344 254.796875 L 298.632812 256.320312 L 299.859375 257.847656 L 300.914062 259.425781 L 301.914062 261.125 L 302.789062 262.769531 L 303.558594 264.527344 L 304.195312 266.28125 L 304.773438 268.035156 L 305.246094 269.855469 L 305.597656 271.667969 L 305.894531 273.5 L 306.015625 275.296875 L 306.070312 277.175781 L 306.015625 278.996094 L 305.894531 280.871094 L 305.597656 282.691406 L 305.246094 284.5 L 304.773438 286.320312 L 304.195312 288.078125 L 303.558594 289.832031 L 302.789062 291.597656 L 301.859375 293.234375 L 300.914062 294.933594 L 299.804688 296.511719 L 298.632812 298.09375 L 297.285156 299.5625 L 295.878906 301.019531 L 294.367188 302.4375 L 292.773438 303.71875 L 292.773438 303.652344 C 291.175781 304.878906 289.46875 305.953125 287.664062 306.878906 L 287.738281 306.890625 L 287.355469 307.03125 C 283.019531 309.195312 278.152344 310.457031 272.996094 310.542969 L 272.996094 310.53125 C 272.730469 310.539062 272.464844 310.550781 272.195312 310.554688 C 271.929688 310.550781 271.660156 310.539062 271.394531 310.53125 L 271.394531 310.542969 C 266.242188 310.453125 261.371094 309.195312 257.039062 307.03125 L 256.652344 306.890625 L 256.730469 306.878906 C 254.925781 305.953125 253.214844 304.878906 251.617188 303.652344 L 251.617188 303.71875 L 250.027344 302.4375 L 248.515625 301.019531 L 247.109375 299.5625 L 245.761719 298.09375 L 244.585938 296.511719 L 243.480469 294.933594 L 242.535156 293.234375 L 241.605469 291.597656 L 240.835938 289.832031 L 240.199219 288.078125 L 239.617188 286.320312 L 239.148438 284.5 L 238.796875 282.691406 L 238.5 280.871094 L 238.378906 278.996094 Z M 238.324219 277.175781" style="stroke:none;fill-rule:nonzero;fill:#ffffff;fill-opacity:1;"/></g></g></svg>